<?xml version="1.0" encoding="utf-8"?><svg xmlns="http://www.w3.org/2000/svg" xmlns:xlink="http://www.w3.org/1999/xlink"><symbol fill="none" viewBox="0 0 7 13" id="icon-arrow" xmlns="http://www.w3.org/2000/svg"><path d="M.657 12.157V.843L6.314 6.5.657 12.157z" fill="#fff"/></symbol><symbol fill="none" viewBox="0 0 20 21" id="icon-benefit" xmlns="http://www.w3.org/2000/svg"><path fill="#FFCB05" d="M0 .5h20v20H0z"/><path fill-rule="evenodd" clip-rule="evenodd" d="M11 9.5v-4H9v4H5v2h4v4h2v-4h4v-2h-4z" fill="#fff"/></symbol><symbol fill="none" viewBox="0 0 20 21" id="icon-benefit--grey" xmlns="http://www.w3.org/2000/svg"><path fill="#A6A6A6" d="M0 .5h20v20H0z"/><path d="M5 9.5h10v2H5v-2z" fill="#fff"/></symbol><symbol fill="none" viewBox="0 0 21 21" id="icon-check" xmlns="http://www.w3.org/2000/svg"><path fill-rule="evenodd" clip-rule="evenodd" d="M20.5.031V0H.5v20.031h2V20h16v.031h2v-20zM18.5 2h-16v16h16V2zm-14 8.072l1.414-1.414 2.793 2.793 5.935-5.935 1.414 1.414-7.142 7.142-.065-.065-.207.207L4.5 10.072z" fill="#FFCB05"/></symbol><symbol fill="none" viewBox="0 0 19 14" id="icon-checked" xmlns="http://www.w3.org/2000/svg"><path fill-rule="evenodd" clip-rule="evenodd" d="M7.107 12.9l.099.098 10.85-10.85L15.906 0 6.891 9.016 2.648 4.773.5 6.922l6.292 6.292.315-.314z" fill="#FFCB05"/></symbol><symbol fill="none" viewBox="0 0 11 10" id="icon-close" xmlns="http://www.w3.org/2000/svg"><rect width="10" height="10" rx="5" transform="matrix(-1 0 0 1 10.741 0)" fill="#FFCB05"/><path fill-rule="evenodd" clip-rule="evenodd" d="M4.175 2.566l-1.01 1.01 1.566 1.566-1.566 1.566 1.01 1.01 1.566-1.566 1.566 1.566 1.01-1.01-1.566-1.566 1.566-1.566-1.01-1.01-1.566 1.566-1.566-1.566z" fill="#fff"/></symbol><symbol fill="none" viewBox="0 0 20 20" id="icon-consult" xmlns="http://www.w3.org/2000/svg"><path fill-rule="evenodd" clip-rule="evenodd" d="M20 0H7v10h7l4 4v-4h2V0zM5 6v6h8v4H6l-4 4v-4H0V6h5z" fill="#FFCB05"/></symbol><symbol viewBox="0 0 21 20" id="icon-facebook" xmlns="http://www.w3.org/2000/svg"><path d="M19.888 0H2.103C1.493 0 .998.495.998 1.105V18.89c0 .61.495 1.11 1.105 1.11h9.585v-7.745h-2.6V9.25h2.6V7.015c0-2.58 1.565-3.99 3.87-3.99 1.105 0 2.025.08 2.315.12v2.7h-1.585c-1.255 0-1.48.595-1.48 1.47V9.25h2.97l-.39 3.005h-2.58V20h5.08c.61 0 1.105-.495 1.105-1.105V1.105A1.102 1.102 0 0019.888 0z"/></symbol><symbol viewBox="0 0 21 20" id="icon-instagram" xmlns="http://www.w3.org/2000/svg"><path fill-rule="evenodd" clip-rule="evenodd" d="M10.998 1.801c2.67 0 2.987.01 4.04.06.976.045 1.505.206 1.859.344.468.18.8.398 1.15.747.35.349.568.683.748 1.151.138.351.3.883.345 1.858.047 1.054.059 1.372.059 4.041 0 2.67-.01 2.988-.06 4.042-.045.975-.206 1.504-.344 1.858-.18.467-.398.8-.747 1.15a3.088 3.088 0 01-1.151.748c-.351.138-.883.3-1.858.344-1.054.048-1.372.06-4.041.06-2.67 0-2.988-.01-4.042-.06-.975-.045-1.504-.206-1.858-.344-.467-.18-.8-.399-1.15-.747a3.088 3.088 0 01-.748-1.151c-.138-.351-.3-.883-.344-1.858-.048-1.054-.06-1.372-.06-4.042s.01-2.987.06-4.04c.045-.976.206-1.505.344-1.859.18-.467.398-.8.747-1.15a3.087 3.087 0 011.151-.748c.351-.138.883-.3 1.858-.345 1.054-.047 1.372-.059 4.042-.059zm0-1.801C8.28 0 7.94.012 6.873.06 5.808.106 5.082.277 4.446.523a4.913 4.913 0 00-1.77 1.154 4.913 4.913 0 00-1.154 1.77c-.247.636-.415 1.362-.465 2.428C1.007 6.94.997 7.283.997 10s.012 3.056.06 4.124c.047 1.066.218 1.792.465 2.428a4.913 4.913 0 001.153 1.77 4.913 4.913 0 001.77 1.154c.637.246 1.363.415 2.428.465 1.066.05 1.407.059 4.125.059 2.717 0 3.056-.012 4.124-.06 1.066-.047 1.792-.218 2.428-.464a4.913 4.913 0 001.77-1.154 4.913 4.913 0 001.153-1.77c.247-.636.416-1.362.465-2.428.05-1.065.06-1.407.06-4.124 0-2.717-.012-3.056-.06-4.124-.047-1.066-.218-1.792-.465-2.428a4.913 4.913 0 00-1.153-1.77A4.922 4.922 0 0017.547.524C16.91.278 16.183.11 15.12.06 14.054.012 13.712 0 10.998 0zm0 4.865a5.136 5.136 0 100 10.271 5.136 5.136 0 000-10.271zm0 8.47a3.334 3.334 0 110-6.669 3.334 3.334 0 010 6.668zm6.535-8.672a1.2 1.2 0 11-2.402 0 1.2 1.2 0 012.402 0z"/></symbol><symbol fill="none" viewBox="0 0 114 16" id="icon-intergator" xmlns="http://www.w3.org/2000/svg"><path d="M.989 12.105H0V2.794h.989v9.311zm9.459 0h-.972V7.758c0-1.585-.698-2.558-1.978-2.558-1.516 0-2.642 1.024-2.642 2.985v3.923h-.971v-7.59h.894l.009 1.144h.068c.716-.87 1.62-1.314 2.694-1.314 1.858 0 2.898 1.177 2.898 3.222v4.535zm2.998-9.87h.958V4.52h2.166v.801h-2.166v4.622c0 .955.257 1.414 1.126 1.414.493 0 .972-.154 1.43-.476v.886a2.554 2.554 0 01-1.536.493c-1.516 0-1.995-.818-1.995-2.317V5.32h-1.28v-.784l1.28-.017.017-2.284zm11.406 9.189c-.75.562-1.704.853-2.864.853-1.212 0-2.183-.36-2.899-1.075-.698-.733-1.057-1.705-1.057-2.917 0-1.109.36-2.047 1.057-2.797.699-.767 1.585-1.143 2.625-1.143 1.075 0 1.927.376 2.54 1.109.612.733.92 1.654.92 2.763 0 .154 0 .273-.017.342h-6.119c.017.886.308 1.585.852 2.115.562.51 1.246.767 2.046.767 1.11 0 2.081-.325 2.916-.99v.973zm-5.797-3.65h5.198C24.1 6.208 23.162 5.2 21.732 5.2c-1.499 0-2.522 1.007-2.676 2.575zm8.385 3.684l.042.006c.009-.003.018-.003.023-.006.023-.11.049-.222.086-.333a1.77 1.77 0 01.202-.414l-.168-.02.938-1.04c.19.134.419.23.68.3.166.002.331.03.488.085.143.014.29.022.45.022.852 0 1.568-.273 2.132-.818a2.697 2.697 0 00.852-2.013c0-.784-.273-1.414-.818-1.91l1.5-.006v-.76H31.34a4.006 4.006 0 00-1.16-.189c-.852 0-1.567.274-2.149.835a2.696 2.696 0 00-.852 2.013c0 .887.291 1.585.852 2.099l-1.413 1.28c.003.496.276.784.82.87zm2.744-6.31a2.047 2.047 0 012.08 2.082c0 1.16-.8 2.064-2.08 2.064-1.297 0-2.08-.852-2.08-2.08.003-1.161.906-2.065 2.08-2.065zm6.598 3.225v3.735h-.972V4.536h.852l-.017 1.349c.017.017.035.017.052.017.544-1.041 1.38-1.551 2.522-1.551.205 0 .376.017.51.051v.938a2.89 2.89 0 00-.698-.086c-1.38-.002-2.249 1.329-2.249 3.12zm8.59 2.763l-.085-.017c-.681.767-1.568 1.16-2.642 1.16-.972 0-1.67-.222-2.098-.681-.427-.459-.63-.955-.63-1.5 0-1.67 1.177-2.506 3.511-2.506h1.91v-.41c0-1.349-.733-2.013-2.197-2.013-.767 0-1.602.24-2.471.733v-.887c.68-.41 1.79-.664 2.522-.664 2.183 0 3.103 1.006 3.103 2.968v4.792h-.906l-.017-.975zm-.034-2.797h-2.012c-1.619 0-2.42.562-2.42 1.671 0 .938.852 1.448 1.961 1.448 1.585 0 2.47-1.075 2.47-2.557v-.562zm3.967-6.104h.94V4.52h2.166v.801h-2.166v4.622c0 .955.257 1.414 1.126 1.414.493 0 .972-.154 1.43-.476v.886a2.526 2.526 0 01-1.532.493c-1.517 0-1.995-.818-1.995-2.317V5.32h-1.28v-.81l1.28.009.03-2.284zm5.629 8.918c-.698-.75-1.057-1.705-1.057-2.848 0-1.109.376-2.03 1.142-2.797a3.824 3.824 0 012.796-1.16c1.126 0 2.064.376 2.796 1.143.733.767 1.109 1.705 1.109 2.814 0 1.126-.377 2.064-1.126 2.831-.733.767-1.67 1.143-2.779 1.143-1.211-.002-2.166-.376-2.881-1.126zm.75-5.066c-.545.596-.819 1.349-.819 2.215 0 .904.257 1.67.784 2.27.527.596 1.263.886 2.166.886.887 0 1.602-.308 2.132-.903.527-.613.8-1.363.8-2.25 0-.87-.273-1.62-.817-2.215-.527-.613-1.246-.921-2.115-.921-.87-.003-1.567.305-2.132.918zm9.136 2.286v3.735h-.971V4.536h.855l-.02 1.349c.017.017.034.017.051.017.544-1.041 1.38-1.551 2.522-1.551.205 0 .376.017.51.051v.938a2.89 2.89 0 00-.698-.086c-1.38-.002-2.249 1.329-2.249 3.12zM.989 1.81H0V.818h.989v.992z" fill="#fff"/><path d="M30.236 16c-2.09 0-3.728-1.149-3.728-2.617 0-.721.396-1.386 1.12-1.88h-.148v-.82h.353c1.827-.006 4.335-.014 5.51 1.155.412.413.623.932.623 1.545C33.963 14.85 32.327 16 30.236 16zm-.445-4.456c-.587.077-1.33.399-1.65.607-.524.34-.812.779-.812 1.235 0 .975 1.33 1.796 2.91 1.796 1.575 0 2.91-.824 2.91-1.796 0-.394-.126-.71-.383-.967-.595-.59-1.78-.801-2.975-.875z" fill="#fff"/><path d="M71.296 12.105h-.99v-.992h.99v.992z" fill="#FFCB05"/><path d="M85.298 12.105h-.377V4.57h.377v7.535zm0-8.29h-.377v-.377h.377v.377zm8.982.755h-2.453a3.428 3.428 0 00-.886-.12c-.87 0-1.585.274-2.166.819-.579.527-.87 1.194-.87 1.995 0 1.024.36 1.774 1.058 2.267l-1.16 1.349c0 .017-.017.085-.017.102 0 .12.102.206.307.257l.143.014c.034-.1.077-.197.131-.285a4.012 4.012 0 01-.185-.02l1.006-1.28c.459.29 1.057.445 1.755.445.835 0 1.534-.274 2.098-.819a2.696 2.696 0 00.852-2.012c0-1.075-.63-1.979-1.533-2.404l1.927-.003V4.57h-.006zm-1.518.921c.527.476.784 1.075.784 1.79 0 .7-.24 1.298-.733 1.791-.493.476-1.109.716-1.875.716-1.653 0-2.676-1.007-2.676-2.524 0-.698.256-1.297.766-1.773.51-.493 1.143-.733 1.91-.733.7 0 1.314.237 1.824.733zm4.007 6.614h-.376V4.57h.376v7.535zm0-8.29h-.376v-.377h.376v.377zm6.663.755v.308H100.5v4.995c0 1.297.39 1.996 1.687 1.996a2.57 2.57 0 001.601-.545v.377c-.461.342-1.006.51-1.635.51-1.551 0-2.03-.835-2.03-2.335V4.878h-1.482v-.31l1.482.002.043-2.252h.331V4.57h2.935zm7.262 5.389c-.017-.017-.017-.017-.034-.017-.479 1.893-2.317 2.3-3.443 2.3-1.516 0-2.42-.835-2.42-2.013 0-1.619 1.212-2.437 3.631-2.437h2.266v-.613c0-1.483-.784-2.438-2.574-2.438-.903 0-1.738.24-2.505.716v-.36c.716-.461 1.551-.68 2.523-.68 1.943 0 2.915.937 2.915 2.796v4.895h-.39l.031-2.15zm-1.263 1.328c.75-.476 1.263-1.482 1.263-2.848v-.36h-2.3c-2.149 0-3.22.716-3.22 2.133 0 1.11.886 1.722 2.114 1.722.73.003 1.411-.168 2.143-.647zm4.569.818h-.376V0H114v12.105z" fill="#fff"/><path d="M90.906 15.755c-1.92 0-3.482-1.064-3.482-2.37 0-.655.382-1.265 1.074-1.716a5.07 5.07 0 01.835-.41 37.87 37.87 0 00-.826 0h-.356v-.328h.353c1.681-.003 4.232-.014 5.335 1.08.365.365.55.827.55 1.372-.003 1.308-1.564 2.372-3.483 2.372zm-.458-4.46c-.656.08-1.442.434-1.773.648-.596.388-.923.898-.923 1.44 0 1.126 1.416 2.041 3.154 2.041 1.739 0 3.155-.915 3.155-2.041 0-.462-.148-.836-.453-1.14-.652-.645-1.91-.87-3.16-.947zM75.049.87h-.376v11.236h.376V.87zm1.824 0v.353a5.264 5.264 0 010 10.526v.354a5.62 5.62 0 005.617-5.62A5.614 5.614 0 0076.873.87z" fill="#fff"/></symbol><symbol viewBox="0 0 16 20" id="icon-locations" xmlns="http://www.w3.org/2000/svg"><path fill-rule="evenodd" clip-rule="evenodd" d="M0 7.675C0 3.445 3.468 0 7.727 0c4.264 0 7.732 3.444 7.727 7.675C15.454 12.93 7.727 20 7.727 20S0 12.93 0 7.675zm10.91-3.13H4.544v6.364h6.364V4.545z"/></symbol><symbol fill="none" viewBox="0 0 105 58" id="icon-logo-desktop" xmlns="http://www.w3.org/2000/svg"><path d="M18.79 1.272v14.687c0 5.58-3.364 8.78-9.354 8.78-6.072 0-9.354-3.2-9.354-8.78V1.272h3.856v14.605c0 3.2 1.888 5.333 5.498 5.333 3.61 0 5.497-2.133 5.497-5.333V1.272h3.857zm6.564 6.646v1.559h.738c.903-1.149 2.38-1.97 4.841-1.97 4.431 0 7.139 3.693 7.139 8.616 0 5.005-2.708 8.615-7.139 8.615-2.461 0-3.856-.82-4.677-1.969h-.738v8.041h-3.61V7.918h3.446zm.082 8.205c0 2.954 1.395 5.58 4.513 5.58 3.036 0 4.512-2.38 4.512-5.58s-1.476-5.497-4.512-5.497c-3.2 0-4.513 2.625-4.513 5.497zm25.272-4.841H49.23c-3.364 0-5.17 1.887-5.17 5.333v7.713h-3.61V7.918h3.529v1.887h.738c.656-.902 2.051-1.887 4.595-1.887h1.395v3.364zm1.477-6.892V.862h3.774V4.39h-3.774zm3.61 19.938h-3.61V7.918h3.61v16.41zm18.461-16.41V23.59c0 4.677-3.118 7.549-7.959 7.549-4.348 0-7.302-1.806-7.712-5.334h3.61c.328 1.641 1.805 2.298 4.02 2.298 3.118 0 4.35-1.97 4.35-4.841v-1.067h-.74c-.738 1.149-2.215 1.97-4.594 1.97-4.513 0-7.22-3.53-7.22-8.37 0-4.841 2.789-8.37 7.22-8.37 2.461 0 3.938.985 4.677 1.97h.738v-1.56h3.61v.083zm-3.528 7.959c0-2.872-1.559-5.251-4.595-5.251-2.871 0-4.512 2.133-4.512 5.25 0 3.037 1.64 5.252 4.512 5.252 3.118-.082 4.595-2.461 4.595-5.251zm18.216 8.451v-9.6c0-2.543-1.231-4.02-3.61-4.02-2.626 0-4.267 2.215-4.267 4.84v8.78h-3.61V.862h3.61v8.615h.738c.903-1.23 2.462-1.97 4.677-1.97 4.02 0 6.072 2.462 6.072 6.565v10.256h-3.61zm15.015-16.41v3.118h-3.856v8.04c0 1.396.656 2.134 2.543 2.134h1.395v3.2h-1.395c-3.61 0-6.072-1.066-6.072-4.84v-8.534H93.95V7.918h2.625V3.159h3.611v4.759h3.774zm-86.892 45.21v3.529H.082V33.6h16.574v3.528H3.938v5.908h10.01v3.446H3.939v6.646h13.129zM28.8 44.595c-.246-1.395-1.559-1.805-3.2-1.805-1.805 0-2.954.492-2.954 1.723 0 1.067.739 1.395 2.133 1.64l3.2.493c3.036.492 5.006 2.051 5.006 5.087 0 2.708-2.38 5.252-7.057 5.252-4.84 0-7.138-2.134-7.549-5.416h3.61c.329 1.641 1.642 2.38 3.775 2.38s3.446-.575 3.446-2.134c0-1.23-.738-1.805-2.707-2.215l-3.447-.574c-2.461-.41-4.184-1.723-4.184-4.349 0-2.79 2.133-5.005 6.728-5.005 4.02 0 6.4 1.97 6.728 4.84H28.8v.083zm14.851-4.431v3.118h-3.856v8.041c0 1.395.656 2.133 2.544 2.133h1.394v3.2H42.34c-3.61 0-6.072-1.066-6.072-4.84v-8.534H33.64v-3.118h2.626v-4.759h3.61v4.76h3.774zm12.8 14.933h-.738c-.985 1.231-2.544 1.97-4.841 1.97-3.775 0-5.908-2.544-5.908-5.416 0-2.543 1.805-5.497 6.564-5.497h4.841v-.492c0-1.806-1.066-3.036-3.446-3.036-2.133 0-3.2.82-3.282 2.133h-3.692c.164-3.118 2.872-5.005 6.81-5.005 4.267 0 7.138 1.887 7.138 5.908v10.912h-3.364v-1.477h-.082zm-.164-5.087v-1.23h-4.184c-2.298 0-3.529.984-3.529 2.707 0 1.641 1.231 2.626 3.364 2.626 2.462 0 4.35-1.805 4.35-4.103zm14.933-9.846v3.118h-3.856v8.041c0 1.395.656 2.133 2.544 2.133h1.395v3.2h-1.395c-3.61 0-6.072-1.066-6.072-4.84v-8.534H61.21v-3.118h2.626v-4.759h3.61v4.76h3.775zm16.739 8.533H75.815c.082 3.365 1.641 5.252 4.595 5.252 1.97 0 3.118-.739 3.61-2.134h3.693c-.575 3.036-3.036 5.17-7.303 5.17-5.169 0-8.205-3.61-8.205-8.78s3.036-8.533 8.123-8.533c4.923 0 7.549 3.446 7.631 7.713v1.313zm-11.98-2.707h8.206c-.246-1.805-1.477-3.364-3.939-3.364-2.543.082-3.856 1.477-4.266 3.364z" fill="#4D4D4D"/></symbol><symbol fill="none" viewBox="0 0 180 1020" id="icon-logo-desktop-image" xmlns="http://www.w3.org/2000/svg"><g clip-path="url(#amclip0)"><path d="M159.979.082h-20.02v20.02h20.02V.083z" fill="#4D4D4D"/><path d="M79.98 40.041l59.979-20.02h19.938v20.02h20.021V59.98h-19.945v69.027h-20.014V59.979h-59.98V40.041z" fill="#FFCB05"/><path fill-rule="evenodd" clip-rule="evenodd" d="M120.021 860.231H100v139.899h20.021V860.231zM79.98 900.19H59.959v99.94h20.02v-99.94zm59.973-39.959h20.02v139.899h-20.02V860.231z" fill="#FFCB05"/><path fill-rule="evenodd" clip-rule="evenodd" d="M20 940.149h20.02v20.02H20v-20.02zm39.959 59.981h20.02v20.02H59.96v-20.02zm40.041 0h20.021v20.02H100v-20.02zm59.979 0h-20.02v20.02h20.02v-20.02z" fill="#4D4D4D"/><path d="M159.973 129.004h-20.02v731.224h20.02V129.004z" fill="#FFCB05"/></g><defs><clipPath id="amclip0"><path fill="#fff" d="M0 0h180v1020H0z"/></clipPath></defs></symbol><symbol fill="none" viewBox="0 0 22 50" id="icon-logo-img-tablet" xmlns="http://www.w3.org/2000/svg"><path d="M7.946 47.364H5.294V50h2.652v-2.636zm5.305 0h-2.652V50h2.652v-2.636zm5.294 0h-2.652V50h2.652v-2.636zm0-47.364h-2.652v2.636h2.652V0z" fill="#4D4D4D"/><path d="M7.946 34.205H5.294v13.159h2.652v-13.16zm5.305-5.262h-2.652v18.42h2.652v-18.42z" fill="#FFCB05"/><path d="M7.946 5.261l7.947-2.636h2.641v2.636h2.652v2.626h-2.652v39.477h-2.641V7.887H7.946V5.26z" fill="#FFCB05"/><path d="M2.652 39.466H0v2.636h2.652v-2.636z" fill="#4D4D4D"/></symbol><symbol fill="none" viewBox="0 0 142 22" id="icon-logo-text-tablet" xmlns="http://www.w3.org/2000/svg"><path d="M13.014.285v10.218c0 3.881-2.34 6.107-6.507 6.107C2.283 16.61 0 14.384 0 10.503V.285h2.683v10.16c0 2.227 1.313 3.71 3.824 3.71 2.512 0 3.824-1.483 3.824-3.71V.285h2.683zm4.566 4.624v1.084h.514c.628-.799 1.655-1.37 3.368-1.37 3.082 0 4.966 2.569 4.966 5.994 0 3.482-1.884 5.993-4.966 5.993-1.713 0-2.683-.57-3.254-1.37h-.513v5.594h-2.512V4.909h2.397zm.058 5.708c0 2.055.97 3.881 3.139 3.881 2.112 0 3.14-1.655 3.14-3.881s-1.028-3.825-3.14-3.825c-2.226 0-3.14 1.827-3.14 3.825zm17.58-3.367H34.19c-2.34 0-3.596 1.312-3.596 3.71v5.365h-2.511V4.909h2.454v1.313h.514c.457-.628 1.427-1.313 3.197-1.313h.97v2.34zm1.027-4.796V0h2.626v2.454h-2.626zm2.512 13.87h-2.512V4.91h2.512v11.416zM51.6 4.909V15.81c0 3.253-2.17 5.251-5.537 5.251-3.025 0-5.08-1.256-5.366-3.71h2.512c.228 1.142 1.256 1.598 2.797 1.598 2.169 0 3.025-1.37 3.025-3.367v-.742h-.514c-.513.799-1.54 1.37-3.196 1.37-3.14 0-5.023-2.455-5.023-5.823 0-3.367 1.94-5.822 5.023-5.822 1.712 0 2.74.685 3.253 1.37h.514V4.852H51.6v.057zm-2.455 5.536c0-1.997-1.084-3.653-3.196-3.653-1.998 0-3.14 1.484-3.14 3.653 0 2.112 1.142 3.653 3.14 3.653 2.169-.057 3.196-1.712 3.196-3.653zm12.672 5.88V9.646c0-1.77-.856-2.797-2.512-2.797-1.826 0-2.968 1.542-2.968 3.368v6.108h-2.511V0h2.511v5.993h.514c.628-.856 1.712-1.37 3.253-1.37 2.797 0 4.224 1.713 4.224 4.567v7.135h-2.511zM72.262 4.909v2.169H69.58v5.594c0 .97.457 1.484 1.77 1.484h.97v2.226h-.97c-2.511 0-4.224-.742-4.224-3.368V7.078H65.3v-2.17h1.826v-3.31h2.512v3.31h2.625zm20.249 9.371v2.455H80.696V.695h11.53V3.15h-8.848v4.11h6.964v2.397h-6.964v4.623h9.133zm8.162-5.936c-.171-.97-1.084-1.255-2.226-1.255-1.255 0-2.055.342-2.055 1.198 0 .742.514.97 1.484 1.142l2.227.342c2.112.343 3.481 1.427 3.481 3.54 0 1.883-1.655 3.652-4.908 3.652-3.368 0-4.966-1.484-5.252-3.767h2.512c.228 1.142 1.141 1.655 2.625 1.655s2.398-.4 2.398-1.484c0-.856-.514-1.256-1.884-1.54l-2.397-.4c-1.712-.286-2.911-1.2-2.911-3.026 0-1.94 1.484-3.481 4.68-3.481 2.797 0 4.452 1.37 4.681 3.367h-2.455v.057zm10.332-3.082v2.169h-2.683v5.594c0 .97.457 1.484 1.769 1.484h.971v2.226h-.971c-2.511 0-4.223-.742-4.223-3.368V7.431h-1.827V5.262h1.827v-3.31h2.511v3.31h2.626zm8.904 10.388h-.514c-.685.857-1.769 1.37-3.367 1.37-2.626 0-4.11-1.77-4.11-3.767 0-1.77 1.256-3.824 4.566-3.824h3.368v-.343c0-1.255-.742-2.112-2.397-2.112-1.484 0-2.226.571-2.284 1.484h-2.568c.114-2.169 1.998-3.481 4.737-3.481 2.969 0 4.966 1.312 4.966 4.11v7.59h-2.34V15.65h-.057zm-.114-3.539v-.856h-2.911c-1.598 0-2.455.685-2.455 1.884 0 1.142.857 1.827 2.341 1.827 1.712 0 3.025-1.256 3.025-2.854zm10.388-6.849v2.169h-2.682v5.594c0 .97.456 1.484 1.769 1.484h.97v2.226h-.97c-2.511 0-4.224-.742-4.224-3.368V7.431h-1.826V5.262h1.826v-3.31h2.512v3.31h2.625zm11.644 5.936h-8.447c.057 2.34 1.141 3.653 3.196 3.653 1.37 0 2.169-.513 2.512-1.484h2.568c-.399 2.112-2.112 3.596-5.08 3.596-3.596 0-5.708-2.511-5.708-6.107s2.112-5.936 5.651-5.936c3.425 0 5.251 2.397 5.308 5.365v.913zm-8.333-1.883h5.708c-.171-1.256-1.028-2.34-2.74-2.34-1.769.056-2.683 1.027-2.968 2.34z" fill="#4D4D4D"/></symbol><symbol fill="none" viewBox="0 0 100 55" id="icon-logo-yellow-desktop" xmlns="http://www.w3.org/2000/svg"><path d="M17.995 1.112V15.24c0 5.367-3.236 8.445-8.997 8.445C3.158 23.685 0 20.607 0 15.24V1.112h3.71V15.16c0 3.078 1.815 5.13 5.288 5.13 3.472 0 5.288-2.052 5.288-5.13V1.11h3.71zm6.315 6.393v1.5h.71c.868-1.106 2.289-1.895 4.656-1.895 4.262 0 6.867 3.552 6.867 8.287 0 4.815-2.605 8.288-6.867 8.288-2.367 0-3.71-.79-4.498-1.894h-.71v7.734h-3.474V7.505h3.315zm.078 7.892c0 2.842 1.342 5.367 4.341 5.367 2.92 0 4.341-2.288 4.341-5.367 0-3.078-1.42-5.288-4.34-5.288-3.079 0-4.342 2.526-4.342 5.288zm24.31-4.657h-1.421c-3.236 0-4.972 1.816-4.972 5.13v7.42h-3.473V7.505h3.394V9.32h.71c.631-.868 1.973-1.815 4.42-1.815h1.342v3.236zm1.42-6.63V.718h3.631v3.394h-3.63zm3.473 19.18h-3.473V7.505h3.473V23.29zM71.35 7.505V22.58c0 4.499-3 7.261-7.656 7.261-4.183 0-7.025-1.736-7.42-5.13h3.473c.316 1.578 1.737 2.21 3.868 2.21 3 0 4.183-1.895 4.183-4.657v-1.026h-.71c-.71 1.105-2.131 1.894-4.42 1.894-4.341 0-6.946-3.394-6.946-8.05 0-4.657 2.684-8.05 6.946-8.05 2.367 0 3.788.946 4.499 1.893h.71v-1.5h3.473v.08zm-3.394 7.656c0-2.763-1.5-5.052-4.42-5.052-2.763 0-4.341 2.053-4.341 5.052 0 2.92 1.578 5.051 4.34 5.051 3-.079 4.42-2.368 4.42-5.051zm17.522 8.129v-9.234c0-2.447-1.184-3.868-3.473-3.868-2.526 0-4.104 2.131-4.104 4.657v8.445h-3.473V.717H77.9v8.287h.71c.868-1.184 2.368-1.894 4.499-1.894 3.867 0 5.84 2.368 5.84 6.314v9.866h-3.472zM99.921 7.505v2.999h-3.71v7.735c0 1.341.632 2.052 2.447 2.052H100v3.078h-1.342c-3.472 0-5.84-1.026-5.84-4.657v-8.208h-2.526v-3h2.526V2.928h3.472v4.578h3.631zM16.338 50.993v3.394H0V32.21h15.943v3.394H3.71v5.682h9.629V44.6h-9.63v6.393h12.629zm11.286-8.208c-.236-1.342-1.5-1.736-3.078-1.736-1.736 0-2.841.473-2.841 1.657 0 1.026.71 1.342 2.052 1.578l3.078.474c2.92.474 4.815 1.973 4.815 4.893 0 2.605-2.29 5.052-6.788 5.052-4.657 0-6.867-2.052-7.261-5.21h3.472c.316 1.58 1.579 2.29 3.631 2.29 2.052 0 3.315-.553 3.315-2.053 0-1.183-.71-1.736-2.605-2.13l-3.315-.553c-2.367-.395-4.025-1.657-4.025-4.183 0-2.684 2.052-4.815 6.472-4.815 3.868 0 6.156 1.895 6.472 4.657h-3.394v.079zm14.286-4.262v2.999H38.2v7.735c0 1.342.632 2.052 2.447 2.052h1.342v3.078h-1.342c-3.473 0-5.84-1.026-5.84-4.657v-8.208H32.28v-3h2.526v-4.577h3.472v4.578h3.631zm12.312 14.364h-.71c-.947 1.184-2.447 1.895-4.657 1.895-3.63 0-5.682-2.447-5.682-5.21 0-2.446 1.736-5.288 6.314-5.288h4.657v-.473c0-1.736-1.026-2.92-3.315-2.92-2.052 0-3.078.789-3.157 2.052H44.12c.158-3 2.762-4.815 6.55-4.815 4.105 0 6.867 1.816 6.867 5.683v10.497h-3.236v-1.42h-.079zm-.157-4.893V46.81h-4.026c-2.21 0-3.393.947-3.393 2.605 0 1.578 1.184 2.525 3.236 2.525 2.367 0 4.183-1.736 4.183-3.946zm14.365-9.471v2.999h-3.71v7.735c0 1.342.631 2.052 2.447 2.052h1.341v3.078h-1.341c-3.473 0-5.841-1.026-5.841-4.657v-8.208H58.8v-3h2.526v-4.577h3.473v4.578h3.63zm16.1 8.208H72.85c.078 3.236 1.578 5.051 4.42 5.051 1.893 0 2.998-.71 3.472-2.052h3.552c-.553 2.92-2.92 4.973-7.025 4.973-4.972 0-7.893-3.473-7.893-8.445 0-4.973 2.92-8.209 7.814-8.209 4.736 0 7.261 3.315 7.34 7.42v1.262zm-11.523-2.604H80.9c-.237-1.737-1.421-3.236-3.789-3.236-2.447.079-3.71 1.42-4.104 3.236z" fill="#FFCB05"/></symbol><symbol fill="none" viewBox="0 0 20 15" id="icon-metro" xmlns="http://www.w3.org/2000/svg"><path d="M6.004 12.31h1.05v1.723H0v-1.72h.4c.277 0 .552-.005.83.003.1.002.15-.025.189-.121.913-2.246 1.83-4.492 2.746-6.739L6.005.95l.049-.116c1.316 2.24 2.622 4.461 3.945 6.707 1.32-2.24 2.627-4.464 3.947-6.708.177.428.34.831.506 1.234 1.377 3.374 2.755 6.749 4.127 10.125.039.094.083.126.186.124.363-.008.727-.003 1.09-.003H20v1.718h-7.057v-1.715h1.053c-.345-.962-.685-1.904-1.035-2.876-.994 1.587-1.972 3.145-2.962 4.727L7.037 9.443 6.004 12.31z" fill="#FFCB05"/></symbol><symbol fill="none" viewBox="0 0 20 21" id="icon-parameters" xmlns="http://www.w3.org/2000/svg"><path fill-rule="evenodd" clip-rule="evenodd" d="M18 .5h-6v2H0v2h12v2h6v-2h2v-2h-2v-2zm-16 9H0v2h2v2h6v-2h12v-2H8v-2H2v2zm-2 7h12v-2h6v2h2v2h-2v2h-6v-2H0v-2z" fill="#FFCB05"/></symbol><symbol viewBox="0 0 20 20" id="icon-parameters-tablet" xmlns="http://www.w3.org/2000/svg"><path fill-rule="evenodd" clip-rule="evenodd" d="M2 0H0v2h2V0zm18 0H4v2h16V0zM4 6h16v2H4V6zM2 6H0v2h2V6zm2 6h16v2H4v-2zm-2 0H0v2h2v-2zm2 6h16v2H4v-2zm-2 0H0v2h2v-2z"/></symbol><symbol viewBox="0 0 14 20" id="icon-phone" xmlns="http://www.w3.org/2000/svg"><path fill-rule="evenodd" clip-rule="evenodd" d="M0 0h14v20H0V0zm2 2h10v15H2V2zm3.5 16a.5.5 0 000 1h3a.5.5 0 000-1h-3z"/></symbol><symbol viewBox="0 0 20 19" id="icon-skype" xmlns="http://www.w3.org/2000/svg"><path fill-rule="evenodd" clip-rule="evenodd" d="M4.96.02c0 .01-.064.02-.155.02s-.157.007-.157.019c0 .01-.052.02-.117.02s-.117.008-.117.019c0 .01-.035.02-.078.02s-.078.008-.078.019c0 .01-.035.02-.078.02s-.078.008-.078.019c0 .01-.036.02-.079.02-.043 0-.078.008-.078.019 0 .01-.026.02-.058.02-.033 0-.059.008-.059.019 0 .01-.026.02-.058.02-.033 0-.06.008-.06.019 0 .01-.025.02-.058.02-.032 0-.058.008-.058.019 0 .01-.027.02-.059.02s-.058.008-.058.02c0 .01-.027.019-.059.019s-.059.008-.059.02c0 .01-.017.019-.039.019-.021 0-.039.008-.039.02 0 .01-.017.019-.039.019-.021 0-.039.009-.039.02 0 .01-.017.019-.039.019-.021 0-.039.009-.039.02 0 .01-.026.019-.059.019-.032 0-.058.009-.058.02 0 .01-.018.019-.04.019-.02 0-.038.009-.038.02 0 .01-.018.019-.04.019-.02 0-.038.009-.038.02 0 .01-.016.02-.035.02-.02 0-.048.017-.063.038-.016.022-.044.04-.063.04-.02 0-.035.008-.035.019 0 .01-.017.02-.039.02-.021 0-.039.008-.039.019 0 .01-.016.02-.035.02-.019 0-.047.017-.063.038-.015.022-.041.04-.058.04s-.043.017-.059.038c-.015.022-.042.04-.058.04-.017 0-.043.017-.059.039-.015.021-.042.039-.058.039-.017 0-.044.017-.06.039-.015.021-.04.039-.054.039-.014 0-.06.035-.101.078a.32.32 0 01-.097.078c-.027 0-.743.716-.743.744a.32.32 0 01-.078.096c-.043.041-.078.087-.078.101 0 .015-.018.04-.04.055-.021.016-.039.042-.039.059 0 .016-.017.043-.039.058-.021.016-.039.042-.039.059 0 .017-.017.043-.039.059-.021.015-.039.041-.039.058s-.017.043-.039.059c-.021.015-.039.044-.039.063 0 .019-.009.034-.02.034-.01 0-.019.018-.019.04 0 .02-.009.038-.02.038-.01 0-.02.018-.02.04 0 .021-.008.039-.019.039-.01 0-.02.017-.02.039 0 .021-.008.039-.019.039-.01 0-.02.017-.02.039 0 .021-.008.039-.019.039-.01 0-.02.017-.02.039 0 .021-.008.039-.019.039-.01 0-.02.018-.02.04 0 .02-.008.038-.019.038-.01 0-.02.026-.02.059 0 .032-.008.058-.019.058-.01 0-.02.018-.02.04 0 .02-.008.038-.019.038-.01 0-.02.027-.02.059s-.008.059-.019.059c-.01 0-.02.017-.02.039 0 .021-.008.039-.02.039-.01 0-.019.026-.019.058 0 .033-.008.059-.02.059-.01 0-.019.035-.019.078s-.008.078-.02.078c-.01 0-.019.035-.019.078s-.009.078-.02.078c-.01 0-.019.036-.019.079 0 .043-.009.078-.02.078-.01 0-.019.052-.019.117s-.009.117-.02.117c-.011 0-.019.072-.019.176s-.008.176-.02.176S0 4.909 0 5.156c0 .248.007.39.02.39.01 0 .02.066.02.157s.007.156.019.156c.01 0 .02.044.02.098 0 .054.008.098.019.098.01 0 .02.044.02.097 0 .054.008.098.019.098.01 0 .02.026.02.059 0 .032.008.058.019.058.01 0 .02.035.02.078s.008.078.019.078c.01 0 .02.018.02.04 0 .021.008.039.019.039.01 0 .02.026.02.058s.008.059.019.059c.01 0 .02.026.02.058 0 .033.008.059.019.059.01 0 .02.018.02.039s.008.04.02.04c.01 0 .019.017.019.038 0 .022.008.04.02.04.01 0 .019.017.019.038 0 .022.008.04.02.04.01 0 .019.017.019.038 0 .022.009.04.02.04.01 0 .019.017.019.038 0 .022.009.04.02.04.01 0 .019.017.019.039 0 .021.009.039.02.039.01 0 .019.015.019.034 0 .02.018.048.039.063.021.016.04.044.04.063 0 .02.008.035.019.035.01 0 .02.016.02.035 0 .019.017.047.038.063.022.015.04.042.04.058 0 .017.017.043.038.059.022.015.04.044.04.063 0 .019.008.035.019.035.01 0 .02.026.02.058s-.01.059-.02.059c-.011 0-.02.065-.02.156s-.008.156-.02.156c-.01 0-.019.065-.019.156 0 .092-.008.157-.02.157s-.019.215-.019.605.007.606.02.606c.011 0 .02.078.02.195s.007.195.019.195c.011 0 .02.065.02.156 0 .092.008.157.019.157.01 0 .02.044.02.097 0 .054.008.098.019.098.01 0 .02.052.02.117s.008.117.019.117c.01 0 .02.036.02.079 0 .043.008.078.02.078.01 0 .019.035.019.078s.008.078.02.078c.01 0 .019.035.019.078s.008.078.02.078c.01 0 .019.027.019.059s.009.058.02.058c.01 0 .019.027.019.059s.009.059.02.059c.01 0 .019.035.019.078s.009.078.02.078c.01 0 .019.017.019.039 0 .021.009.039.02.039.01 0 .019.026.019.059 0 .032.009.058.02.058.01 0 .02.027.02.059s.008.058.019.058c.01 0 .02.027.02.059s.008.059.019.059c.01 0 .02.017.02.039 0 .021.008.039.019.039.01 0 .02.017.02.039 0 .021.008.039.019.039.01 0 .02.026.02.058 0 .033.008.059.019.059.01 0 .02.018.02.039s.008.04.019.04c.01 0 .02.017.02.038 0 .022.008.04.019.04.01 0 .02.017.02.038 0 .022.008.04.019.04.01 0 .02.017.02.038 0 .022.008.04.02.04.01 0 .019.017.019.039 0 .021.008.039.02.039.01 0 .019.017.019.039 0 .021.008.039.02.039.01 0 .019.017.019.039 0 .021.009.039.02.039.01 0 .019.017.019.039 0 .021.009.039.02.039.01 0 .019.018.019.039s.009.04.02.04c.01 0 .019.017.019.038 0 .022.009.04.02.04.01 0 .019.015.019.034 0 .02.018.047.04.063.02.015.038.044.038.063 0 .019.009.034.02.034.01 0 .02.016.02.035 0 .02.017.048.038.063.022.016.04.044.04.063 0 .02.008.035.019.035.01 0 .02.014.02.031s.026.056.058.086c.032.03.059.067.059.082 0 .014.017.04.039.055.021.015.039.042.039.058 0 .017.017.043.039.059.021.015.039.04.039.055s.026.052.058.082c.033.03.059.065.059.078 0 .013.026.048.059.078.032.03.058.065.058.077 0 .013.044.066.098.118a.466.466 0 01.098.116c0 .027.95.978.977.978a.45.45 0 01.116.098.443.443 0 00.118.097c.013 0 .047.027.078.059.03.032.065.058.078.058.013 0 .048.027.078.059s.065.059.078.059c.013 0 .048.026.078.058s.067.059.082.059.04.017.055.039c.015.021.042.039.058.039.017 0 .043.018.059.039.015.021.042.04.059.04.016 0 .043.017.058.038.016.022.042.04.059.04.016 0 .043.017.058.038.016.022.044.04.063.04.02 0 .035.008.035.019 0 .01.016.02.035.02.019 0 .047.017.063.038.015.022.043.04.063.04.019 0 .034.008.034.019 0 .01.018.02.04.02.02 0 .038.008.038.02 0 .01.016.019.035.019.02 0 .048.017.063.039.016.021.044.039.063.039.02 0 .035.008.035.02 0 .01.017.019.039.019.021 0 .039.009.039.02 0 .01.017.019.039.019.021 0 .039.009.039.02 0 .01.018.019.04.019.02 0 .038.009.038.02 0 .01.018.019.04.019.02 0 .038.009.038.02 0 .01.027.02.059.02s.058.008.058.019c0 .01.018.02.04.02.021 0 .039.008.039.019 0 .01.017.02.039.02.021 0 .039.008.039.019 0 .01.017.02.039.02.021 0 .039.008.039.019 0 .01.017.02.039.02.021 0 .039.008.039.019 0 .01.026.02.059.02.032 0 .058.008.058.019 0 .01.018.02.04.02.02 0 .038.008.038.019 0 .01.018.02.04.02.02 0 .038.008.038.019 0 .01.027.02.059.02s.059.008.059.02c0 .01.026.019.058.019s.059.008.059.02c0 .01.017.019.039.019.021 0 .039.009.039.02 0 .01.026.019.058.019.033 0 .06.008.06.02 0 .01.025.019.058.019.032 0 .058.009.058.02 0 .01.027.019.059.019s.058.009.058.02c0 .01.036.019.079.019.043 0 .078.009.078.02 0 .01.026.019.058.019.033 0 .059.009.059.02 0 .01.035.02.078.02s.078.008.078.019c0 .01.035.02.078.02s.078.008.078.019c0 .01.036.02.079.02.042 0 .078.008.078.019 0 .01.044.02.097.02.054 0 .098.008.098.019 0 .01.052.02.117.02s.117.008.117.019c0 .01.052.02.117.02.066 0 .118.008.118.019s.065.02.156.02.156.008.156.019c0 .012.085.02.215.02s.215.007.215.019c0 .013.26.02.742.02s.742-.007.742-.02c0-.012.072-.02.176-.02s.176-.007.176-.019.078-.02.195-.02.195.008.195.02c0 .01.018.02.04.02.021 0 .039.008.039.019 0 .01.015.02.034.02.02 0 .048.017.063.039.016.021.044.039.063.039.02 0 .035.009.035.02 0 .01.018.019.039.019s.039.008.039.02c0 .01.026.019.059.019.032 0 .058.009.058.02 0 .01.018.019.04.019.02 0 .038.009.038.02 0 .01.018.019.04.019.02 0 .038.009.038.02 0 .01.027.019.059.019s.059.009.059.02c0 .01.017.02.039.02.021 0 .039.008.039.019 0 .01.026.02.058.02.033 0 .059.008.059.019 0 .01.026.02.059.02.032 0 .058.008.058.019 0 .01.035.02.078.02s.078.008.078.019c0 .01.027.02.059.02s.059.008.059.019c0 .01.035.02.078.02s.078.008.078.019c0 .01.044.02.098.02.053 0 .097.008.097.019 0 .01.052.02.117.02s.117.008.117.019.066.02.157.02c.09 0 .156.008.156.02s.228.019.645.019c.416 0 .644-.007.644-.02 0-.011.059-.02.137-.02.078 0 .136-.008.136-.019 0-.01.053-.02.118-.02s.117-.008.117-.019c0-.01.044-.02.098-.02.053 0 .097-.008.097-.02 0-.01.035-.019.078-.019s.078-.008.078-.02c0-.01.036-.019.079-.019.043 0 .078-.009.078-.02 0-.01.026-.019.058-.019s.059-.008.059-.02c0-.01.026-.019.058-.019.033 0 .06-.009.06-.02 0-.01.017-.019.038-.019.022 0 .04-.009.04-.02 0-.01.026-.019.058-.019s.058-.009.058-.02c0-.01.027-.019.059-.019s.059-.009.059-.02c0-.01.017-.02.039-.02.021 0 .039-.008.039-.019 0-.01.017-.02.039-.02.021 0 .039-.008.039-.019 0-.01.026-.02.058-.02.033 0 .059-.008.059-.019 0-.01.018-.02.04-.02.02 0 .038-.008.038-.019 0-.01.018-.02.04-.02.02 0 .038-.008.038-.019 0-.01.018-.02.04-.02.02 0 .038-.008.038-.019 0-.01.016-.02.035-.02.02 0 .048-.017.063-.038.015-.022.044-.04.063-.04.019 0 .035-.008.035-.02 0-.01.017-.019.039-.019.021 0 .039-.008.039-.02 0-.01.015-.019.035-.019.019 0 .047-.017.063-.039.015-.021.041-.039.058-.039s.043-.017.059-.039c.015-.021.042-.039.058-.039.017 0 .043-.018.059-.039.015-.021.04-.04.055-.04s.052-.025.082-.058c.03-.032.064-.058.077-.058a.444.444 0 00.118-.098.465.465 0 01.116-.098c.027 0 .587-.56.587-.587 0-.012.035-.055.078-.096s.078-.085.078-.098c0-.012.035-.056.078-.098.043-.04.078-.088.078-.105s.01-.031.02-.031.02-.016.02-.035c0-.02.017-.047.039-.063.021-.015.039-.042.039-.058 0-.017.017-.043.039-.059.021-.015.039-.042.039-.059 0-.016.017-.043.039-.058.021-.016.039-.044.039-.063 0-.02.009-.035.02-.035.01 0 .019-.018.019-.039s.009-.039.02-.039c.01 0 .02-.018.02-.04 0-.02.008-.038.019-.038.01 0 .02-.018.02-.04 0-.02.008-.038.019-.038.01 0 .02-.018.02-.04 0-.02.008-.038.019-.038.01 0 .02-.018.02-.04 0-.02.008-.039.019-.039.01 0 .02-.017.02-.039 0-.021.008-.039.019-.039.01 0 .02-.026.02-.058s.008-.059.019-.059c.01 0 .02-.017.02-.039 0-.021.008-.039.019-.039.01 0 .02-.026.02-.059 0-.032.008-.058.019-.058.01 0 .02-.018.02-.04 0-.02.008-.038.02-.038.01 0 .019-.035.019-.078s.008-.079.02-.079c.01 0 .019-.035.019-.078s.009-.078.02-.078c.01 0 .019-.026.019-.058 0-.033.008-.059.02-.059.01 0 .019-.044.019-.098 0-.053.009-.097.02-.097.01 0 .019-.052.019-.117 0-.066.008-.118.02-.118.011 0 .019-.071.019-.175 0-.105.008-.176.02-.176s.019-.15.019-.41-.007-.41-.02-.41c-.01 0-.02-.066-.02-.157 0-.09-.007-.156-.019-.156-.01 0-.02-.052-.02-.117s-.008-.117-.019-.117c-.01 0-.02-.036-.02-.079 0-.042-.008-.078-.019-.078-.01 0-.02-.035-.02-.078s-.008-.078-.019-.078c-.01 0-.02-.035-.02-.078s-.008-.078-.019-.078c-.01 0-.02-.027-.02-.059s-.008-.058-.019-.058c-.01 0-.02-.018-.02-.04 0-.02-.008-.038-.019-.038-.01 0-.02-.027-.02-.059s-.008-.059-.019-.059c-.01 0-.02-.026-.02-.058s-.008-.059-.02-.059c-.01 0-.019-.017-.019-.039 0-.021-.008-.039-.02-.039-.01 0-.019-.018-.019-.039s-.009-.04-.02-.04c-.01 0-.019-.017-.019-.038 0-.022-.008-.04-.02-.04-.01 0-.019-.017-.019-.038 0-.022-.009-.04-.02-.04-.01 0-.019-.017-.019-.038 0-.022-.009-.04-.02-.04-.01 0-.019-.017-.019-.039 0-.021-.009-.039-.02-.039-.01 0-.019-.017-.019-.039 0-.021-.009-.039-.02-.039-.01 0-.02-.015-.02-.034 0-.02-.017-.048-.038-.063-.022-.016-.04-.042-.04-.059 0-.017-.017-.043-.038-.059-.022-.015-.04-.043-.04-.062 0-.02-.008-.035-.019-.035s-.02-.059-.02-.137c0-.078.009-.137.02-.137.012 0 .02-.065.02-.156s.008-.156.02-.156c.011 0 .019-.11.019-.293 0-.182.007-.293.02-.293.011 0 .019-.117.019-.313 0-.195-.008-.312-.02-.312s-.02-.091-.02-.234c0-.144-.007-.235-.019-.235-.011 0-.02-.065-.02-.156s-.007-.156-.019-.156c-.01 0-.02-.052-.02-.117 0-.066-.008-.118-.019-.118-.01 0-.02-.044-.02-.097 0-.054-.008-.098-.019-.098-.01 0-.02-.044-.02-.098 0-.053-.008-.097-.019-.097-.01 0-.02-.035-.02-.078s-.008-.079-.02-.079c-.01 0-.019-.035-.019-.078s-.008-.078-.02-.078c-.01 0-.019-.026-.019-.058 0-.033-.009-.059-.02-.059-.01 0-.019-.026-.019-.059 0-.032-.008-.058-.02-.058-.01 0-.019-.035-.019-.078s-.009-.078-.02-.078c-.01 0-.019-.018-.019-.04 0-.021-.009-.039-.02-.039-.01 0-.019-.026-.019-.058s-.009-.059-.02-.059c-.01 0-.019-.026-.019-.058 0-.033-.009-.059-.02-.059-.01 0-.02-.018-.02-.039s-.008-.04-.019-.04c-.01 0-.02-.025-.02-.058 0-.032-.008-.058-.019-.058-.01 0-.02-.018-.02-.04 0-.02-.008-.038-.019-.038-.01 0-.02-.018-.02-.04 0-.02-.008-.038-.019-.038-.01 0-.02-.018-.02-.04 0-.021-.008-.039-.019-.039-.01 0-.02-.026-.02-.058s-.008-.059-.019-.059c-.01 0-.02-.017-.02-.039 0-.021-.008-.039-.019-.039-.01 0-.02-.018-.02-.039s-.008-.04-.019-.04c-.01 0-.02-.017-.02-.038 0-.022-.008-.04-.02-.04-.01 0-.019-.015-.019-.034 0-.02-.017-.047-.039-.063-.021-.015-.039-.044-.039-.063 0-.019-.008-.035-.02-.035-.01 0-.019-.017-.019-.039 0-.021-.009-.039-.02-.039-.01 0-.019-.015-.019-.034 0-.02-.017-.048-.039-.063-.021-.016-.039-.044-.039-.063 0-.02-.009-.035-.02-.035-.01 0-.02-.016-.02-.035 0-.019-.017-.047-.038-.063-.022-.015-.04-.041-.04-.058s-.017-.043-.038-.059c-.022-.015-.04-.042-.04-.058 0-.017-.017-.043-.038-.059-.022-.015-.04-.042-.04-.059 0-.016-.017-.043-.038-.058-.022-.016-.04-.042-.04-.059 0-.016-.017-.043-.039-.058-.021-.016-.039-.04-.039-.055s-.035-.06-.078-.102c-.043-.04-.078-.085-.078-.098 0-.012-.026-.047-.059-.077-.032-.03-.058-.065-.058-.078a.607.607 0 00-.117-.137.638.638 0 01-.117-.136c0-.027-.716-.743-.744-.743a.638.638 0 01-.135-.117.612.612 0 00-.138-.118.322.322 0 01-.097-.078c-.041-.043-.085-.078-.098-.078-.013 0-.048-.026-.078-.058-.03-.033-.065-.059-.078-.059-.013 0-.048-.026-.078-.059-.03-.032-.067-.058-.082-.058-.014 0-.039-.018-.055-.04-.015-.02-.041-.038-.058-.038s-.043-.018-.059-.04c-.015-.02-.042-.038-.058-.038-.017 0-.043-.018-.059-.04-.015-.02-.042-.038-.059-.038-.016 0-.043-.018-.058-.04-.016-.021-.042-.039-.059-.039-.016 0-.043-.017-.058-.039-.016-.021-.044-.039-.063-.039-.02 0-.035-.009-.035-.02 0-.01-.016-.019-.035-.019-.019 0-.047-.017-.063-.039-.015-.021-.043-.039-.063-.039-.019 0-.034-.009-.034-.02 0-.01-.018-.019-.04-.019-.02 0-.038-.009-.038-.02 0-.01-.018-.02-.04-.02-.02 0-.039-.008-.039-.019 0-.01-.017-.02-.039-.02-.021 0-.039-.008-.039-.019 0-.01-.017-.02-.039-.02-.021 0-.039-.008-.039-.019 0-.01-.015-.02-.035-.02-.019 0-.047-.017-.062-.038a.107.107 0 00-.083-.04c-.03 0-.054-.008-.054-.019 0-.01-.018-.02-.04-.02-.02 0-.038-.008-.038-.019 0-.01-.018-.02-.04-.02-.02 0-.038-.008-.038-.019 0-.01-.018-.02-.04-.02-.02 0-.039-.008-.039-.02 0-.01-.017-.019-.039-.019-.021 0-.039-.008-.039-.02 0-.01-.026-.019-.058-.019s-.059-.008-.059-.02c0-.01-.017-.019-.039-.019-.021 0-.039-.009-.039-.02 0-.01-.018-.019-.039-.019s-.04-.009-.04-.02c0-.01-.025-.019-.058-.019-.032 0-.058-.009-.058-.02 0-.01-.027-.019-.059-.019s-.058-.009-.058-.02c0-.01-.018-.019-.04-.019-.021 0-.039-.009-.039-.02 0-.01-.026-.02-.058-.02s-.059-.008-.059-.019c0-.01-.026-.02-.058-.02-.033 0-.059-.008-.059-.019 0-.01-.026-.02-.059-.02-.032 0-.058-.008-.058-.019 0-.01-.027-.02-.059-.02s-.058-.008-.058-.019c0-.01-.027-.02-.059-.02s-.059-.008-.059-.019c0-.01-.035-.02-.078-.02s-.078-.008-.078-.019c0-.01-.035-.02-.078-.02S12.5.969 12.5.958c0-.01-.026-.02-.059-.02-.032 0-.058-.008-.058-.019 0-.01-.044-.02-.098-.02-.054 0-.098-.008-.098-.02 0-.01-.043-.019-.097-.019-.054 0-.098-.008-.098-.02 0-.01-.044-.019-.098-.019-.053 0-.097-.008-.097-.02 0-.01-.052-.019-.117-.019s-.117-.008-.117-.02c0-.01-.06-.019-.137-.019-.078 0-.137-.008-.137-.02 0-.01-.072-.019-.176-.019s-.175-.008-.175-.02-.15-.019-.41-.019c-.261 0-.41-.007-.41-.02 0-.01-.045-.019-.098-.019-.054 0-.098.009-.098.02 0 .012-.15.02-.41.02s-.41.006-.41.019c0 .011-.072.02-.176.02S8.75.71 8.75.722c0 .01-.052.02-.117.02s-.117-.01-.117-.02c0-.011-.018-.02-.04-.02-.02 0-.039-.009-.039-.02 0-.01-.017-.019-.039-.019-.021 0-.039-.009-.039-.02 0-.01-.017-.019-.039-.019-.021 0-.039-.009-.039-.02 0-.01-.017-.02-.039-.02-.021 0-.039-.008-.039-.019 0-.01-.017-.02-.039-.02-.021 0-.039-.008-.039-.019 0-.01-.026-.02-.059-.02-.032 0-.058-.008-.058-.019 0-.01-.018-.02-.04-.02-.02 0-.038-.008-.038-.019 0-.01-.018-.02-.04-.02-.02 0-.038-.008-.038-.019 0-.01-.027-.02-.059-.02S7.734.383 7.734.372c0-.01-.026-.02-.058-.02S7.617.344 7.617.333c0-.01-.017-.02-.039-.02-.021 0-.039-.008-.039-.019 0-.01-.026-.02-.059-.02-.032 0-.058-.008-.058-.02 0-.01-.035-.019-.078-.019s-.078-.008-.078-.02c0-.01-.027-.019-.059-.019s-.059-.008-.059-.02c0-.01-.044-.019-.097-.019-.054 0-.098-.009-.098-.02 0-.01-.035-.019-.078-.019s-.078-.009-.078-.02c0-.01-.052-.019-.117-.019S6.563.07 6.563.058c0-.01-.066-.019-.157-.019-.09 0-.156-.008-.156-.02S6.022 0 5.605 0c-.416 0-.644.007-.644.02zm5.743 3.671c0 .012.078.02.195.02.118 0 .196.008.196.02 0 .01.052.019.117.019s.117.009.117.02c0 .01.052.02.117.02s.117.008.117.019c0 .01.036.02.079.02.043 0 .078.008.078.019 0 .01.044.02.097.02.054 0 .098.008.098.019 0 .01.026.02.059.02.032 0 .058.008.058.019 0 .01.027.02.059.02s.058.008.058.019c0 .01.027.02.059.02s.059.008.059.019c0 .01.026.02.058.02s.059.008.059.019c0 .01.026.02.058.02.033 0 .059.008.059.019 0 .01.018.02.04.02.02 0 .038.008.038.02 0 .01.018.019.04.019.02 0 .038.008.038.02 0 .01.025.019.054.019.032 0 .066.016.083.039.016.021.044.039.063.039.019 0 .035.009.035.02 0 .01.017.019.039.019.021 0 .039.009.039.02 0 .01.017.019.039.019.021 0 .039.009.039.02 0 .01.018.019.039.019s.039.009.039.02c0 .01.016.02.035.02.019 0 .047.017.063.038.015.022.041.04.058.04s.043.017.059.038c.015.022.04.04.054.04a.41.41 0 01.122.097.463.463 0 00.116.098c.028 0 .313.286.313.313a.32.32 0 00.078.097c.043.041.079.085.079.098 0 .012.026.047.058.078.032.03.059.068.059.086 0 .017.008.03.02.03.01 0 .019.018.019.04 0 .021.009.039.02.039.01 0 .019.017.019.039 0 .021.009.039.02.039.01 0 .019.026.019.059 0 .032.009.058.02.058.01 0 .019.035.019.078s.009.078.02.078c.01 0 .02.036.02.079 0 .043.008.078.019.078s.02.078.02.195-.009.195-.02.195c-.011 0-.02.027-.02.059s-.009.059-.02.059c-.01 0-.019.024-.019.054a.106.106 0 01-.04.082c-.02.016-.038.04-.038.055 0 .014-.035.06-.078.101-.043.042-.078.09-.078.106a.031.031 0 01-.032.031c-.017 0-.056.027-.086.059-.03.032-.068.058-.085.058-.018 0-.032.01-.032.02s-.015.02-.035.02c-.019 0-.047.017-.062.038a.107.107 0 01-.083.04c-.03 0-.054.008-.054.02 0 .01-.044.019-.098.019-.053 0-.097.008-.097.02 0 .01-.079.019-.196.019s-.195-.008-.195-.02c0-.01-.035-.02-.078-.02s-.078-.008-.078-.019c0-.01-.027-.02-.059-.02s-.059-.008-.059-.019c0-.01-.017-.02-.039-.02-.021 0-.039-.008-.039-.019 0-.01-.015-.02-.034-.02-.02 0-.048-.017-.063-.039-.016-.021-.04-.039-.054-.039-.033 0-.278-.245-.278-.278 0-.014-.018-.038-.04-.054-.02-.015-.038-.04-.038-.055s-.027-.051-.059-.081c-.032-.03-.059-.067-.059-.082s-.017-.04-.039-.055c-.021-.016-.039-.044-.039-.063 0-.02-.008-.035-.02-.035-.01 0-.019-.015-.019-.035 0-.019-.017-.047-.039-.062-.021-.016-.039-.04-.039-.056 0-.014-.026-.051-.059-.081-.032-.03-.058-.065-.058-.077 0-.028-.325-.353-.353-.353a.317.317 0 01-.096-.078c-.042-.043-.09-.078-.106-.078-.017 0-.031-.009-.031-.02 0-.01-.018-.02-.04-.02-.02 0-.038-.008-.038-.019 0-.01-.018-.02-.04-.02-.02 0-.038-.008-.038-.019 0-.01-.027-.02-.059-.02s-.059-.008-.059-.019c0-.01-.026-.02-.058-.02s-.059-.008-.059-.019c0-.01-.035-.02-.078-.02s-.078-.008-.078-.019-.059-.02-.137-.02c-.078 0-.136-.008-.136-.019 0-.013-.209-.02-.586-.02-.378 0-.586.007-.586.02 0 .011-.059.02-.137.02-.078 0-.137.008-.137.019 0 .01-.026.02-.058.02-.033 0-.059.008-.059.02 0 .01-.035.019-.078.019s-.078.008-.078.02c0 .01-.026.019-.059.019-.032 0-.058.008-.058.02 0 .01-.018.019-.04.019-.02 0-.038.009-.038.02 0 .01-.027.019-.059.019s-.059.009-.059.02c0 .01-.017.019-.039.019-.021 0-.039.009-.039.02 0 .01-.014.019-.031.019s-.056.026-.086.059c-.03.032-.065.058-.077.058-.03 0-.235.208-.235.24 0 .014-.018.038-.04.053-.021.016-.039.044-.039.063 0 .02-.008.035-.02.035-.01 0-.019.017-.019.039 0 .021-.008.039-.02.039-.01 0-.019.035-.019.078s-.008.078-.02.078c-.01 0-.019.065-.019.156 0 .092.008.157.02.157.01 0 .02.026.02.058s.008.059.019.059c.01 0 .02.022.02.049 0 .035.041.09.146.195.08.08.157.146.171.146.014 0 .038.018.053.04.016.021.044.039.063.039.02 0 .035.008.035.02 0 .01.018.019.04.019.02 0 .038.008.038.02 0 .01.018.019.04.019.02 0 .038.008.038.02 0 .01.018.019.04.019.02 0 .039.009.039.02 0 .01.026.019.058.019s.059.009.059.02c0 .01.017.019.039.019.021 0 .039.009.039.02 0 .01.026.019.058.019.033 0 .059.009.059.02 0 .01.026.019.059.019.032 0 .058.009.058.02 0 .01.027.02.059.02s.058.008.058.019c0 .01.036.02.079.02.042 0 .078.008.078.019 0 .01.035.02.078.02s.078.008.078.019c0 .01.035.02.078.02s.078.008.078.019c0 .01.044.02.098.02.053 0 .097.008.097.019 0 .01.036.02.079.02.043 0 .078.008.078.019 0 .01.035.02.078.02s.078.008.078.019c0 .01.044.02.098.02.053 0 .097.008.097.019 0 .01.035.02.078.02s.079.008.079.02c0 .01.035.019.078.019s.078.008.078.02c0 .01.044.019.097.019.054 0 .098.008.098.02 0 .01.035.019.078.019s.078.009.078.02c0 .01.035.019.078.019s.079.009.079.02c0 .01.035.019.078.019s.078.009.078.02c0 .01.044.019.098.019.053 0 .097.009.097.02 0 .01.035.019.078.019s.078.009.078.02c0 .01.036.02.079.02.042 0 .078.008.078.019 0 .01.044.02.097.02.054 0 .098.008.098.019 0 .01.035.02.078.02s.078.008.078.019c0 .01.035.02.078.02s.078.008.078.019c0 .01.036.02.079.02.043 0 .078.008.078.019 0 .01.026.02.058.02.033 0 .059.008.059.019 0 .01.018.02.039.02s.039.008.039.019c0 .01.026.02.059.02.032 0 .058.008.058.019 0 .01.027.02.059.02s.058.008.058.02c0 .01.018.019.04.019.02 0 .039.008.039.02 0 .01.026.019.058.019s.059.008.059.02c0 .01.017.019.039.019.021 0 .039.009.039.02 0 .01.026.019.058.019.033 0 .059.009.059.02 0 .01.018.019.04.019.02 0 .038.009.038.02 0 .01.018.019.04.019.02 0 .038.009.038.02 0 .01.018.019.04.019.02 0 .038.009.038.02 0 .01.016.02.035.02.02 0 .047.017.063.038.015.022.044.04.063.04.019 0 .035.008.035.019 0 .01.017.02.039.02.021 0 .039.008.039.019 0 .01.014.02.031.02s.056.026.086.058c.03.032.067.059.082.059.014 0 .04.017.055.039.015.021.04.039.054.039.015 0 .06.035.102.078a.318.318 0 00.097.078c.027 0 .235.207.235.235 0 .012.035.056.078.097s.078.087.078.101c0 .015.018.04.04.055.02.016.038.042.038.059 0 .016.018.043.04.058.02.016.039.044.039.063 0 .02.008.035.019.035.01 0 .02.018.02.04 0 .02.008.038.02.038.01 0 .019.018.019.04 0 .02.008.038.02.038.01 0 .019.027.019.059s.008.058.02.058c.01 0 .019.036.019.079 0 .043.008.078.02.078.01 0 .019.026.019.058 0 .033.009.059.02.059.01 0 .019.052.019.117s.008.117.02.117c.011 0 .019.085.019.215s.008.215.02.215c.01 0 .019.035.019.078s-.009.078-.02.078c-.011 0-.02.091-.02.235 0 .143-.007.234-.019.234-.01 0-.02.044-.02.098 0 .053-.008.097-.019.097-.01 0-.02.035-.02.078s-.008.079-.019.079c-.01 0-.02.026-.02.058s-.008.059-.019.059c-.01 0-.02.026-.02.058 0 .033-.008.059-.019.059-.01 0-.02.026-.02.058 0 .033-.008.06-.019.06-.01 0-.02.017-.02.038 0 .022-.008.04-.019.04-.01 0-.02.017-.02.038 0 .022-.008.04-.019.04-.01 0-.02.015-.02.034 0 .02-.017.047-.039.063-.021.016-.039.044-.039.063 0 .019-.008.035-.02.035-.01 0-.019.015-.019.034 0 .02-.017.048-.039.063-.021.016-.039.04-.039.055a.41.41 0 01-.098.121.467.467 0 00-.097.116c0 .028-.364.392-.392.392a.319.319 0 00-.096.078c-.042.043-.088.078-.102.078-.015 0-.04.018-.055.04-.015.02-.042.038-.058.038-.017 0-.043.018-.059.04-.015.02-.042.038-.059.038-.016 0-.043.018-.058.04-.016.02-.042.039-.059.039-.016 0-.043.017-.058.039-.016.021-.044.039-.063.039-.02 0-.035.008-.035.02 0 .01-.018.019-.039.019s-.04.008-.04.02c0 .01-.017.019-.038.019-.022 0-.04.008-.04.02 0 .01-.017.019-.038.019-.022 0-.04.009-.04.02 0 .01-.017.019-.038.019-.022 0-.04.009-.04.02 0 .01-.017.019-.039.019-.021 0-.039.009-.039.02 0 .01-.017.019-.039.019-.021 0-.039.009-.039.02 0 .01-.035.02-.078.02s-.078.008-.078.019c0 .01-.026.02-.059.02-.032 0-.058.008-.058.019 0 .01-.027.02-.059.02s-.058.008-.058.019c0 .01-.027.02-.059.02s-.059.008-.059.019c0 .01-.026.02-.058.02s-.059.008-.059.019c0 .01-.044.02-.097.02-.054 0-.098.008-.098.019 0 .01-.035.02-.078.02s-.078.008-.078.019c0 .01-.044.02-.098.02-.054 0-.098.008-.098.019 0 .01-.052.02-.117.02s-.117.008-.117.02c0 .01-.072.019-.176.019s-.175.008-.175.02c0 .011-.105.019-.274.019-.17 0-.273.007-.273.02 0 .012-.157.019-.43.019-.274 0-.43-.007-.43-.02 0-.012-.097-.02-.254-.02-.156 0-.254-.007-.254-.019 0-.011-.065-.02-.156-.02s-.156-.008-.156-.019c0-.01-.044-.02-.098-.02-.053 0-.097-.008-.097-.019 0-.01-.052-.02-.118-.02-.065 0-.117-.008-.117-.019 0-.01-.035-.02-.078-.02s-.078-.008-.078-.02c0-.01-.035-.019-.078-.019s-.078-.008-.078-.02c0-.01-.027-.019-.059-.019s-.058-.008-.058-.02c0-.01-.036-.019-.079-.019-.043 0-.078-.008-.078-.02 0-.01-.026-.019-.058-.019-.033 0-.059-.009-.059-.02 0-.01-.026-.019-.058-.019-.033 0-.06-.009-.06-.02 0-.01-.017-.019-.038-.019-.022 0-.04-.009-.04-.02 0-.01-.026-.019-.058-.019s-.058-.009-.058-.02c0-.01-.018-.02-.04-.02-.02 0-.038-.008-.038-.019 0-.01-.018-.02-.04-.02-.021 0-.039-.008-.039-.019 0-.01-.017-.02-.039-.02-.021 0-.039-.008-.039-.019 0-.01-.017-.02-.039-.02-.021 0-.039-.008-.039-.019 0-.01-.017-.02-.039-.02-.021 0-.039-.008-.039-.019 0-.01-.018-.02-.04-.02-.02 0-.038-.008-.038-.019 0-.01-.016-.02-.035-.02-.019 0-.047-.017-.063-.039-.015-.021-.044-.039-.063-.039-.019 0-.034-.008-.034-.02 0-.01-.014-.019-.032-.019-.017 0-.056-.026-.086-.058-.03-.032-.065-.059-.078-.059-.013 0-.048-.026-.078-.058-.03-.033-.064-.059-.076-.059-.028 0-.51-.481-.51-.51a.32.32 0 00-.078-.095c-.043-.042-.078-.088-.078-.102 0-.015-.018-.04-.04-.055-.02-.015-.038-.042-.038-.058 0-.017-.018-.043-.04-.059-.02-.015-.038-.042-.038-.059 0-.016-.018-.043-.04-.058-.02-.016-.038-.044-.038-.063 0-.02-.01-.035-.02-.035s-.02-.017-.02-.039c0-.021-.008-.039-.019-.039-.01 0-.02-.018-.02-.039s-.008-.039-.02-.039c-.01 0-.019-.018-.019-.04 0-.02-.008-.038-.02-.038-.01 0-.019-.018-.019-.04 0-.02-.008-.038-.02-.038-.01 0-.019-.027-.019-.059s-.009-.058-.02-.058c-.01 0-.019-.036-.019-.079 0-.043-.009-.078-.02-.078-.01 0-.019-.026-.019-.058 0-.033-.009-.059-.02-.059-.011 0-.019-.077-.019-.194 0-.135-.007-.197-.024-.205-.02-.009-.02-.013 0-.022.016-.008.024-.058.024-.147 0-.077.008-.135.02-.135.01 0 .02-.024.02-.054 0-.032.015-.066.038-.083.022-.015.04-.043.04-.063 0-.019.008-.034.019-.034.01 0 .02-.014.02-.03 0-.036.203-.244.239-.244.014 0 .038-.017.053-.039.016-.021.044-.039.063-.039.02 0 .035-.009.035-.02 0-.01.026-.019.059-.019.032 0 .058-.009.058-.02 0-.01.026-.02.059-.02.032 0 .058-.008.058-.019 0-.01.052-.02.117-.02.066 0 .118-.008.118-.019 0-.01.052-.02.117-.02s.117.01.117.02c0 .011.052.02.117.02s.117.008.117.02c0 .01.027.019.059.019s.059.009.059.02c0 .01.017.019.039.019.021 0 .039.009.039.02 0 .01.014.02.031.02s.056.025.086.058c.03.032.065.058.077.058.029 0 .157.129.157.158 0 .012.027.046.059.077.032.03.059.066.059.081s.017.04.039.055c.021.016.039.044.039.063 0 .02.008.035.02.035.01 0 .019.018.019.04 0 .02.008.038.02.038.01 0 .019.027.019.059s.009.058.02.058c.01 0 .019.018.019.04 0 .02.009.038.02.038.01 0 .019.018.019.04 0 .021.009.039.02.039.01 0 .019.017.019.039 0 .021.009.039.02.039.01 0 .019.017.019.039 0 .021.009.039.02.039.01 0 .02.017.02.039 0 .021.008.039.019.039.01 0 .02.018.02.039s.008.04.019.04c.01 0 .02.015.02.034 0 .019.017.047.038.063.022.015.04.04.04.055s.026.051.058.081c.032.03.059.067.059.082s.017.04.039.055c.021.016.039.04.039.054 0 .032.363.395.395.395.014 0 .038.018.054.04.015.02.044.039.063.039.019 0 .034.008.034.019 0 .01.018.02.04.02.021 0 .039.008.039.02 0 .01.017.019.039.019.021 0 .039.008.039.02 0 .01.017.019.039.019.021 0 .039.008.039.02 0 .01.026.019.058.019.033 0 .06.008.06.02 0 .01.017.019.038.019.022 0 .04.009.04.02 0 .01.034.019.077.019s.078.009.078.02c0 .01.044.019.098.019.054 0 .098.009.098.02 0 .011.084.019.215.019.13 0 .214.008.214.02s.105.02.274.02c.17 0 .273-.008.273-.02s.091-.02.235-.02c.143 0 .234-.008.234-.02 0-.01.052-.02.117-.02s.117-.008.117-.019c0-.01.036-.02.079-.02.043 0 .078-.008.078-.019 0-.01.026-.02.058-.02.033 0 .059-.008.059-.019 0-.01.026-.02.058-.02.033 0 .06-.008.06-.019 0-.01.025-.02.058-.02.032 0 .058-.008.058-.019 0-.01.018-.02.04-.02.02 0 .038-.008.038-.019 0-.01.018-.02.04-.02.02 0 .039-.008.039-.019 0-.01.015-.02.034-.02.02 0 .048-.017.063-.039.016-.021.044-.039.063-.039.02 0 .035-.008.035-.02 0-.01.014-.019.031-.019s.056-.026.086-.058c.03-.033.065-.059.077-.059.03 0 .275-.247.275-.278 0-.014.017-.038.039-.054.021-.015.039-.044.039-.063 0-.019.008-.035.02-.035.01 0 .019-.017.019-.039 0-.021.008-.039.02-.039.01 0 .019-.017.019-.039 0-.021.009-.039.02-.039.01 0 .019-.035.019-.078s.009-.078.02-.078c.012 0 .019-.11.019-.293 0-.182-.007-.293-.02-.293-.01 0-.02-.026-.02-.059 0-.032-.008-.058-.019-.058-.01 0-.02-.025-.02-.054a.107.107 0 00-.038-.083c-.022-.015-.04-.044-.04-.063 0-.019-.008-.035-.019-.035-.01 0-.02-.013-.02-.03 0-.033-.202-.243-.235-.243a.32.32 0 01-.096-.078c-.042-.043-.087-.078-.102-.078s-.04-.018-.055-.04c-.015-.02-.041-.038-.058-.038s-.043-.018-.059-.04c-.015-.02-.044-.039-.063-.039-.019 0-.034-.008-.034-.019 0-.01-.018-.02-.04-.02-.021 0-.039-.008-.039-.02 0-.01-.026-.019-.058-.019s-.059-.008-.059-.02c0-.01-.026-.019-.058-.019-.033 0-.059-.008-.059-.02 0-.01-.026-.019-.059-.019-.032 0-.058-.008-.058-.02 0-.01-.035-.019-.078-.019s-.078-.009-.078-.02c0-.01-.036-.019-.079-.019-.043 0-.078-.009-.078-.02 0-.01-.035-.019-.078-.019s-.078-.009-.078-.02c0-.01-.035-.019-.078-.019s-.078-.009-.078-.02c0-.01-.035-.02-.078-.02s-.078-.008-.078-.019c0-.01-.044-.02-.098-.02-.054 0-.098-.008-.098-.019 0-.01-.035-.02-.078-.02S10 9.875 10 9.864c0-.01-.044-.02-.098-.02-.053 0-.097-.008-.097-.019 0-.01-.035-.02-.078-.02s-.079-.008-.079-.019c0-.01-.044-.02-.097-.02-.054 0-.098-.008-.098-.019 0-.01-.044-.02-.098-.02-.053 0-.097-.008-.097-.019 0-.01-.044-.02-.098-.02-.054 0-.098-.008-.098-.019 0-.01-.035-.02-.078-.02s-.078-.008-.078-.02c0-.01-.035-.019-.078-.019s-.078-.008-.078-.02c0-.01-.035-.019-.078-.019s-.078-.008-.078-.02c0-.01-.035-.019-.078-.019s-.079-.009-.079-.02c0-.01-.035-.019-.078-.019s-.078-.009-.078-.02c0-.01-.035-.019-.078-.019s-.078-.009-.078-.02c0-.01-.026-.019-.059-.019-.032 0-.058-.009-.058-.02 0-.01-.027-.019-.059-.019s-.058-.009-.058-.02c0-.01-.036-.02-.079-.02-.042 0-.078-.008-.078-.019 0-.01-.026-.02-.058-.02s-.059-.008-.059-.019c0-.01-.017-.02-.039-.02-.021 0-.039-.008-.039-.019 0-.01-.026-.02-.059-.02-.032 0-.058-.008-.058-.019 0-.01-.026-.02-.059-.02-.032 0-.058-.008-.058-.019 0-.01-.018-.02-.04-.02-.02 0-.038-.008-.038-.019 0-.01-.027-.02-.059-.02s-.059-.008-.059-.019c0-.01-.017-.02-.039-.02-.021 0-.039-.008-.039-.019 0-.01-.026-.02-.058-.02-.033 0-.059-.008-.059-.02 0-.01-.018-.019-.039-.019s-.04-.008-.04-.02c0-.01-.017-.019-.038-.019-.022 0-.04-.008-.04-.02 0-.01-.015-.019-.034-.019-.02 0-.047-.017-.063-.039-.015-.021-.044-.039-.063-.039-.019 0-.035-.009-.035-.02 0-.01-.017-.019-.039-.019-.021 0-.039-.009-.039-.02 0-.01-.014-.019-.03-.019-.018 0-.057-.026-.087-.059-.03-.032-.065-.058-.078-.058-.013 0-.048-.027-.078-.059s-.065-.058-.077-.058c-.028 0-.353-.325-.353-.353a.319.319 0 00-.078-.097c-.043-.04-.078-.087-.078-.101 0-.015-.018-.04-.04-.055-.02-.015-.038-.044-.038-.063 0-.019-.009-.035-.02-.035-.01 0-.02-.017-.02-.039 0-.021-.008-.039-.019-.039-.01 0-.02-.017-.02-.039 0-.021-.008-.039-.019-.039-.01 0-.02-.017-.02-.039 0-.021-.008-.039-.019-.039-.01 0-.02-.026-.02-.058 0-.033-.008-.06-.019-.06-.01 0-.02-.034-.02-.077s-.008-.078-.019-.078c-.01 0-.02-.035-.02-.078s-.008-.079-.019-.079c-.012 0-.02-.071-.02-.175s-.008-.176-.02-.176c-.01 0-.019-.072-.019-.176s.008-.176.02-.176c.011 0 .02-.065.02-.156s.008-.156.019-.156c.01 0 .02-.035.02-.078s.008-.078.019-.078c.01 0 .02-.036.02-.079 0-.043.008-.078.02-.078.01 0 .019-.017.019-.039 0-.021.008-.039.02-.039.01 0 .019-.026.019-.058 0-.033.008-.059.02-.059.01 0 .019-.018.019-.04 0-.02.009-.038.02-.038.01 0 .019-.018.019-.04 0-.02.009-.038.02-.038.01 0 .019-.014.019-.031 0-.018.026-.056.058-.086.033-.03.06-.067.06-.082s.017-.04.038-.055c.022-.016.04-.04.04-.053 0-.031.44-.474.47-.474.012 0 .046-.027.076-.06.03-.031.067-.058.082-.058s.04-.017.055-.039c.015-.021.042-.039.058-.039.017 0 .043-.017.059-.039.015-.021.044-.039.063-.039.019 0 .035-.009.035-.02 0-.01.017-.019.039-.019.021 0 .039-.009.039-.02 0-.01.017-.02.039-.02.021 0 .039-.008.039-.019 0-.01.017-.02.039-.02.021 0 .039-.008.039-.019 0-.01.018-.02.04-.02.02 0 .038-.008.038-.019 0-.01.018-.02.04-.02.02 0 .038-.008.038-.019 0-.01.027-.02.059-.02s.058-.008.058-.019c0-.01.018-.02.04-.02.021 0 .039-.008.039-.019 0-.01.026-.02.058-.02s.059-.008.059-.019c0-.01.017-.02.039-.02.021 0 .039-.008.039-.019 0-.01.026-.02.058-.02.033 0 .06-.008.06-.02 0-.01.025-.019.058-.019.032 0 .058-.008.058-.02 0-.01.035-.019.078-.019s.079-.008.079-.02c0-.01.026-.019.058-.019s.059-.009.059-.02c0-.01.044-.019.097-.019.054 0 .098-.009.098-.02 0-.01.044-.019.098-.019.053 0 .097-.009.097-.02 0-.01.044-.019.098-.019.054 0 .098-.009.098-.02 0-.01.065-.019.156-.019s.156-.008.156-.02c0-.011.078-.02.195-.02.118 0 .196-.007.196-.019s.26-.02.742-.02.742.008.742.02z"/></symbol><symbol viewBox="0 0 20 20" id="icon-sorting-blocks" xmlns="http://www.w3.org/2000/svg"><path fill-rule="evenodd" clip-rule="evenodd" d="M8 0H0v8h8V0zm12 0h-8v8h8V0zM0 12h8v8H0v-8zm20 0h-8v8h8v-8z"/></symbol><symbol viewBox="0 0 20 20" id="icon-sorting-row" xmlns="http://www.w3.org/2000/svg"><path fill-rule="evenodd" clip-rule="evenodd" d="M20 0H0v8h20V0zm0 12H0v8h20v-8z"/></symbol><symbol viewBox="0 0 20 20" id="icon-sorting-rows" xmlns="http://www.w3.org/2000/svg"><path fill-rule="evenodd" clip-rule="evenodd" d="M0 0h20v4H0V0zm0 8h20v4H0V8zm20 8H0v4h20v-4z"/></symbol><symbol fill="none" viewBox="0 0 9 10" id="icon-tag" xmlns="http://www.w3.org/2000/svg"><path d="M6.56 7.5L6.247 10h-1.25l.31-2.492H2.805L2.493 10h-1.25l.311-2.494H.001V6.25h1.71l.312-2.497H0V2.5h2.179L2.493 0h1.25l-.311 2.49h2.501L6.245.002h1.25l-.31 2.49h1.553v1.256h-1.71l-.312 2.504H8.74V7.5H6.56zm-.784-3.75H3.441c-.158 0-.158 0-.182.153-.004.032-.012.063-.016.094-.089.7-.178 1.4-.265 2.1-.007.05-.007.1-.01.154h2.321c.167 0 .167 0 .193-.163.005-.031.012-.062.016-.094.07-.555.138-1.11.207-1.666l.071-.579z" fill="#FFCB05"/></symbol><symbol fill="none" viewBox="0 0 20 21" id="icon-target" xmlns="http://www.w3.org/2000/svg"><path fill-rule="evenodd" clip-rule="evenodd" d="M10.011 20.5C4.531 20.522.015 16.036 0 10.548-.015 5.016 4.457.508 9.989.5c5.495-.007 9.996 4.471 10.01 9.952A10.005 10.005 0 0110.012 20.5zm7.948-9.974c0-4.398-3.558-7.97-7.948-7.978-4.39-.015-7.97 3.58-7.97 7.97.007 4.383 3.587 7.941 7.992 7.941 4.339-.007 7.92-3.587 7.926-7.933zM4 10.305A6.002 6.002 0 0110.217 4.5 5.987 5.987 0 0116 10.74a5.984 5.984 0 01-6.262 5.767A5.999 5.999 0 014 10.305zm9.974.199c.015-2.137-1.768-3.941-3.919-3.97-2.18-.03-3.992 1.752-4.022 3.948-.03 2.143 1.79 3.985 3.941 3.992 2.188.008 3.986-1.775 4-3.97zm-3.97-2.019c-1.12 0-2.011.884-2.011 2.004-.008 1.134.906 2.048 2.025 2.026a2.03 2.03 0 002.004-2.026 2.009 2.009 0 00-2.018-2.004z" fill="#FFCB05"/></symbol><symbol viewBox="0 0 21 17" id="icon-telegram" xmlns="http://www.w3.org/2000/svg"><path d="M16.889 16.66a1.024 1.024 0 01-.61-.207c-1.28-.94-2.562-1.878-3.843-2.816-.23-.168-.461-.335-.688-.506-.06-.045-.096-.049-.155.006-.795.751-1.592 1.498-2.39 2.246-.06.057-.12.113-.184.165a.748.748 0 01-1.162-.375C7.289 13.42 6.7 11.675 6.13 9.924c-.061-.188-.15-.282-.343-.34-1.43-.435-2.858-.885-4.286-1.33-.312-.096-.491-.31-.503-.6-.012-.309.14-.537.46-.658.655-.25 1.312-.493 1.968-.738 4.672-1.741 9.345-3.483 14.018-5.223.911-.34 1.825-.672 2.74-1.003.42-.152.893.264.802.706-.192.937-.39 1.872-.586 2.807l-1.376 6.557c-.405 1.931-.809 3.863-1.216 5.794-.106.505-.411.753-.92.765zm-8.363-2.87l.02-.001c.027-.254.054-.508.078-.762.064-.669.128-1.337.189-2.007a.266.266 0 01.098-.187c.364-.324.725-.65 1.086-.977 1.433-1.294 2.867-2.587 4.298-3.883 1.015-.92 2.025-1.845 3.038-2.767.077-.07.112-.143.056-.238-.047-.08-.188-.112-.278-.064-.073.039-.143.084-.212.128-3.233 2.032-6.444 4.1-9.664 6.152-.085.053-.09.102-.063.19.321 1.038.638 2.079.957 3.119l.397 1.297z"/></symbol><symbol fill="none" viewBox="0 0 20 21" id="icon-undo" xmlns="http://www.w3.org/2000/svg"><path fill-rule="evenodd" clip-rule="evenodd" d="M20 .031V0H0v20.031h2V20h16v.031h2v-20zM18 2H2v16h16V2zM4 5.516L5.414 4.1l4.293 4.293 4.435-4.435 1.414 1.414-4.435 4.436 4.435 4.434-1.414 1.415-4.435-4.435-4.293 4.293L4 14.1l4.293-4.293L4 5.517z" fill="#FFCB05"/></symbol><symbol viewBox="0 0 20 20" id="icon-vk" xmlns="http://www.w3.org/2000/svg"><path d="M16.92 0H3.082A3.083 3.083 0 000 3.083v13.836A3.08 3.08 0 003.08 20h13.837a3.08 3.08 0 003.08-3.08V3.082A3.079 3.079 0 0016.92 0zm-.672 14.017l-1.828-.002s-.394.09-.909-.264c-.683-.47-1.329-1.69-1.83-1.53-.51.16-.493 1.269-.493 1.269s.005.235-.112.36c-.126.136-.375.165-.375.165h-.82s-1.807.097-3.395-1.56c-1.735-1.803-3.265-5.413-3.265-5.413s-.088-.235.007-.35c.109-.127.4-.135.4-.135h1.956s.186.031.316.129c.11.08.171.23.171.23s.316.816.736 1.538c.818 1.412 1.196 1.72 1.474 1.569.405-.221.282-1.996.282-1.996s.007-.646-.204-.93c-.164-.224-.472-.288-.608-.307-.109-.014.071-.27.306-.384.352-.174.973-.183 1.71-.176.571.005.737.043.958.095.674.164.446.793.446 2.3 0 .484-.088 1.16.261 1.386.15.097.518.014 1.431-1.54.437-.741.765-1.622.765-1.622s.07-.17.182-.237c.114-.069.266-.052.266-.052h2.063s.614-.048.714.232c.104.295-.23.976-1.07 2.098-1.382 1.84-1.534 1.669-.39 2.732 1.095 1.016 1.322 1.512 1.358 1.571.453.75-.503.824-.503.824z"/></symbol><symbol fill="none" viewBox="0 0 14 20" id="icon-watch" xmlns="http://www.w3.org/2000/svg"><path fill-rule="evenodd" clip-rule="evenodd" d="M10 0H4v3.674a7 7 0 000 12.652V20h6v-3.674a7 7 0 000-12.652V0zM7 15.6A5.6 5.6 0 107 4.4a5.6 5.6 0 000 11.2zm.7-9.8v3.5h2.1v1.4H6.3V5.8h1.4z" fill="#fff"/></symbol><symbol viewBox="0 0 21 20" id="icon-whatsapp" xmlns="http://www.w3.org/2000/svg"><path fill-rule="evenodd" clip-rule="evenodd" d="M2.4 14.863L.992 20l5.246-1.378a9.916 9.916 0 004.737 1.207h.005c5.464 0 9.912-4.448 9.912-9.912a9.844 9.844 0 00-2.899-7.009A9.817 9.817 0 0010.986 0c-5.46 0-9.908 4.448-9.913 9.907a9.88 9.88 0 001.326 4.956zm4.39 2.143l-.3-.18-3.117.822.832-3.041-.195-.314a8.219 8.219 0 01-1.26-4.38c0-4.544 3.698-8.24 8.236-8.23 2.2 0 4.271.854 5.825 2.413a8.188 8.188 0 012.41 5.826c0 4.537-3.698 8.234-8.236 8.234h-.004a8.209 8.209 0 01-4.191-1.15zm8.85-4.956c.173.083.29.14.34.224.061.104.061.598-.143 1.178-.209.58-1.197 1.107-1.672 1.179-.428.061-.965.09-1.56-.1a13.648 13.648 0 01-1.41-.523c-2.328-1.006-3.898-3.263-4.188-3.681a2.986 2.986 0 00-.041-.059l-.007-.008c-.145-.196-1.006-1.351-1.006-2.553 0-1.148.564-1.746.82-2.019l.045-.048a.911.911 0 01.66-.309c.167 0 .333 0 .476.01h.053c.145-.003.326-.007.503.423.088.208.227.547.363.877.186.452.366.89.402.962.062.123.1.266.019.432l-.027.057c-.065.135-.111.23-.22.357a8.673 8.673 0 00-.137.164c-.082.1-.164.198-.234.268-.123.124-.252.257-.11.504.148.247.642 1.06 1.379 1.715a6.385 6.385 0 001.828 1.158c.068.029.123.053.163.073.247.123.394.104.537-.062.142-.162.618-.722.784-.97.161-.246.328-.204.556-.123.228.086 1.444.684 1.691.808l.137.066z"/></symbol></svg>