<svg width="36" height="40" fill="none" xmlns="http://www.w3.org/2000/svg"><path opacity=".5" d="M35.574 31.737C33.572 35.015 15.867 40 15.867 40S4.23 35.015 6.232 31.737c.938-1.503 3.378-3.005 6.756-4.098C16.367 26.546 20.497 26 24.438 26c3.879 0 7.257.615 9.384 1.707 2.065 1.093 2.69 2.527 1.752 4.03z" fill="url(#paint0_linear)"/><path d="M15.454 0C6.935 0 0 6.889 0 15.351 0 25.858 15.454 40 15.454 40S30.91 25.858 30.91 15.351C30.917 6.889 23.982 0 15.455 0z" fill="#FFCB05"/><path fill="#fff" d="M7 7h17v17H7z"/><defs><linearGradient id="paint0_linear" x1="21.232" y1="25.657" x2="21.232" y2="39.725" gradientUnits="userSpaceOnUse"><stop stop-opacity="0"/><stop offset="1"/></linearGradient></defs></svg>