<svg width="9" height="10" fill="none" xmlns="http://www.w3.org/2000/svg"><path d="M6.56 7.5L6.247 10h-1.25l.31-2.492H2.805L2.493 10h-1.25l.311-2.494H.001V6.25h1.71l.312-2.497H0V2.5h2.179L2.493 0h1.25l-.311 2.49h2.501L6.245.002h1.25l-.31 2.49h1.553v1.256h-1.71l-.312 2.504H8.74V7.5H6.56zm-.784-3.75H3.441c-.158 0-.158 0-.182.153-.004.032-.012.063-.016.094-.089.7-.178 1.4-.265 2.1-.007.05-.007.1-.01.154h2.321c.167 0 .167 0 .193-.163.005-.031.012-.062.016-.094.07-.555.138-1.11.207-1.666l.071-.579z" fill="#FFCB05"/></svg>