<svg width="107" height="214" fill="none" xmlns="http://www.w3.org/2000/svg"><g clip-path="url(#clip0)" fill-rule="evenodd" clip-rule="evenodd" fill="#EAEAEA"><path d="M80.652 13.337l-40.12 13.391v13.337h40.12v200.543h13.337V40.065h13.391V26.728H93.989V13.337H80.652zM67.315 147.032H53.924v93.576h13.391v-93.576zm-26.783 26.729H27.141v66.847h13.391v-66.847z" fill-opacity=".5"/><path d="M94.043 0H80.652v13.392h13.391V0zm-53.51 240.608H27.14V254h13.391v-13.392zm26.782 0H53.924V254h13.391v-13.392zm13.337 0h13.391V254H80.652v-13.392zM.412 200.489h13.392v13.391H.413v-13.391z"/></g><defs><clipPath id="clip0"><path fill="#fff" d="M0 0h107v214H0z"/></clipPath></defs></svg>