<svg width="180" height="1020" fill="none" xmlns="http://www.w3.org/2000/svg"><g clip-path="url(#clip0)"><path d="M159.979.082h-20.02v20.02h20.02V.083z" fill="#4D4D4D"/><path d="M79.98 40.041l59.979-20.02h19.938v20.02h20.021V59.98h-19.945v69.027h-20.014V59.979h-59.98V40.041z" fill="#FFCB05"/><path fill-rule="evenodd" clip-rule="evenodd" d="M120.021 860.231H100v139.899h20.021V860.231zM79.98 900.19H59.959v99.94h20.02v-99.94zm59.973-39.959h20.02v139.899h-20.02V860.231z" fill="#FFCB05"/><path fill-rule="evenodd" clip-rule="evenodd" d="M20 940.149h20.02v20.02H20v-20.02zm39.959 59.981h20.02v20.02H59.96v-20.02zm40.041 0h20.021v20.02H100v-20.02zm59.979 0h-20.02v20.02h20.02v-20.02z" fill="#4D4D4D"/><path d="M159.973 129.004h-20.02v731.224h20.02V129.004z" fill="#FFCB05"/></g><defs><clipPath id="clip0"><path fill="#fff" d="M0 0h180v1020H0z"/></clipPath></defs></svg>